<svg xmlns="http://www.w3.org/2000/svg" xmlns:xlink="http://www.w3.org/1999/xlink" width="280.631" height="80.702" viewBox="0 0 280.631 80.702">
  <defs>
    <linearGradient id="linear-gradient" x1="0.064" y1="0.065" x2="0.933" y2="0.933" gradientUnits="objectBoundingBox">
      <stop offset="0" stop-color="#ff387a"/>
      <stop offset="0.167" stop-color="#e6398c"/>
      <stop offset="0.524" stop-color="#a63eba"/>
      <stop offset="1" stop-color="#4845ff"/>
    </linearGradient>
    <clipPath id="clip-path">
      <path id="Path_3" data-name="Path 3" d="M120.281,53.795a3.262,3.262,0,1,1-3.261,3.262,3.262,3.262,0,0,1,3.261-3.262" fill="#fff" clip-rule="evenodd"/>
    </clipPath>
    <clipPath id="clip-path-2">
      <path id="Path_5" data-name="Path 5" d="M110.474,60.921a5.33,5.33,0,1,1-5.33,5.33,5.329,5.329,0,0,1,5.33-5.33" fill="#fff" clip-rule="evenodd"/>
    </clipPath>
    <clipPath id="clip-path-3">
      <path id="Path_7" data-name="Path 7" d="M121.673,73.265a3.881,3.881,0,1,1-3.881,3.881,3.881,3.881,0,0,1,3.881-3.881" fill="#fff" clip-rule="evenodd"/>
    </clipPath>
    <clipPath id="clip-path-4">
      <path id="Path_9" data-name="Path 9" d="M131.386,61.616a4.576,4.576,0,1,1-4.576,4.576,4.577,4.577,0,0,1,4.576-4.576" fill="#fff" clip-rule="evenodd"/>
    </clipPath>
    <clipPath id="clip-path-5">
      <path id="Path_11" data-name="Path 11" d="M139.024,50.493a3.872,3.872,0,1,1-3.872,3.873,3.873,3.873,0,0,1,3.872-3.873" fill="#fff" clip-rule="evenodd"/>
    </clipPath>
    <clipPath id="clip-path-6">
      <path id="Path_13" data-name="Path 13" d="M134.738,80a3.882,3.882,0,1,1-3.881,3.882A3.881,3.881,0,0,1,134.738,80" fill="#fff" clip-rule="evenodd"/>
    </clipPath>
    <clipPath id="clip-path-7">
      <path id="Path_15" data-name="Path 15" d="M149.287,78.126A4.576,4.576,0,1,1,144.71,82.7a4.576,4.576,0,0,1,4.577-4.576" fill="#fff" clip-rule="evenodd"/>
    </clipPath>
    <clipPath id="clip-path-8">
      <path id="Path_17" data-name="Path 17" d="M153.863,61.74a3.881,3.881,0,1,1-3.881,3.881,3.88,3.88,0,0,1,3.881-3.881" fill="#fff" clip-rule="evenodd"/>
    </clipPath>
    <clipPath id="clip-path-9">
      <path id="Path_19" data-name="Path 19" d="M143.146,66.945a3.013,3.013,0,1,1-3.012,3.013,3.013,3.013,0,0,1,3.012-3.013" fill="#fff" clip-rule="evenodd"/>
    </clipPath>
    <clipPath id="clip-path-10">
      <path id="Path_21" data-name="Path 21" d="M110.519,64.854l9.728-8.955,10.936,9,8.179-12.666,4.475,16.925,8.663-2.9.682-1.39,2.695.761-2.513,1.63-10.909,3.51L138.685,56.5l-7.1,10.988-11.275-9.275L111.7,66.14Z" fill="#fff"/>
    </clipPath>
    <clipPath id="clip-path-11">
      <path id="Path_23" data-name="Path 23" d="M132.046,66.764l-8.3,9.629,12.121,5.955h13.94V84.1H135.674l-.383-.093-14.339-7.045,9.775-11.341Z" fill="#fff"/>
    </clipPath>
    <clipPath id="clip-path-12">
      <path id="Path_25" data-name="Path 25" d="M129.929,54.472A1.632,1.632,0,1,1,128.3,56.1a1.631,1.631,0,0,1,1.631-1.631" fill="#fff" clip-rule="evenodd"/>
    </clipPath>
    <clipPath id="clip-path-13">
      <path id="Path_27" data-name="Path 27" d="M121.481,65.778a1.632,1.632,0,1,1-1.632,1.631,1.631,1.631,0,0,1,1.632-1.631" fill="#fff" clip-rule="evenodd"/>
    </clipPath>
    <clipPath id="clip-path-14">
      <path id="Path_29" data-name="Path 29" d="M146.433,62.358A1.632,1.632,0,1,1,144.8,63.99a1.632,1.632,0,0,1,1.631-1.632" fill="#fff" clip-rule="evenodd"/>
    </clipPath>
    <clipPath id="clip-path-15">
      <path id="Path_31" data-name="Path 31" d="M136.948,73.8a1.632,1.632,0,1,1-1.631,1.632,1.632,1.632,0,0,1,1.631-1.632" fill="#fff" clip-rule="evenodd"/>
    </clipPath>
    <clipPath id="clip-path-16">
      <path id="Path_33" data-name="Path 33" d="M137.991,63.229a.969.969,0,1,1-.97.969.969.969,0,0,1,.97-.969" fill="#fff" clip-rule="evenodd"/>
    </clipPath>
    <clipPath id="clip-path-17">
      <path id="Path_35" data-name="Path 35" d="M145.464,56.012a.97.97,0,1,1-.97.97.97.97,0,0,1,.97-.97" fill="#fff" clip-rule="evenodd"/>
    </clipPath>
    <clipPath id="clip-path-18">
      <path id="Path_37" data-name="Path 37" d="M149.747,72.97a1.43,1.43,0,1,1-1.43,1.43,1.43,1.43,0,0,1,1.43-1.43" fill="#fff" clip-rule="evenodd"/>
    </clipPath>
    <clipPath id="clip-path-19">
      <path id="Path_39" data-name="Path 39" d="M113.4,73.858a1.374,1.374,0,1,1-1.373,1.374,1.374,1.374,0,0,1,1.373-1.374" fill="#fff" clip-rule="evenodd"/>
    </clipPath>
    <clipPath id="clip-path-20">
      <path id="Path_41" data-name="Path 41" d="M141.93,91.276a3.939,3.939,0,1,1-3.939,3.94,3.939,3.939,0,0,1,3.939-3.94" fill="#fff" clip-rule="evenodd"/>
    </clipPath>
    <clipPath id="clip-path-21">
      <rect id="Rectangle_41" data-name="Rectangle 41" width="14.348" height="1.744" transform="translate(141.201 94.737) rotate(-56.697)" fill="#fff"/>
    </clipPath>
    <clipPath id="clip-path-22">
      <path id="Path_43" data-name="Path 43" d="M141.719,86.787a.945.945,0,1,1-.945.944.944.944,0,0,1,.945-.944" fill="#fff" clip-rule="evenodd"/>
    </clipPath>
  </defs>
  <g id="Group_49" data-name="Group 49" transform="translate(-95.811 -33.335)">
    <path id="Path_1" data-name="Path 1" d="M170.108,85.636v-23.9a16.451,16.451,0,0,0-8.225-14.247l-20.7-11.95a16.449,16.449,0,0,0-16.451,0l-20.7,11.95a16.451,16.451,0,0,0-8.225,14.247v23.9a16.451,16.451,0,0,0,8.225,14.247l20.7,11.95a16.454,16.454,0,0,0,16.451,0l20.7-11.95A16.451,16.451,0,0,0,170.108,85.636Z" fill="url(#linear-gradient)"/>
    <text id="yPredict" transform="translate(180.442 92.586)" fill="#0e0e49" font-size="49.406" font-family="Poppins-Light, Poppins" font-weight="300"><tspan x="0" y="0">yPredict</tspan></text>
    <g id="Group_48" data-name="Group 48">
      <g id="Group_5" data-name="Group 5">
        <path id="Path_2" data-name="Path 2" d="M120.281,53.795a3.262,3.262,0,1,1-3.261,3.262,3.262,3.262,0,0,1,3.261-3.262" fill="#fff" fill-rule="evenodd"/>
        <g id="Group_4" data-name="Group 4" clip-path="url(#clip-path)">
          <rect id="Rectangle_19" data-name="Rectangle 19" width="6.522" height="6.522" transform="translate(117.02 53.795)" fill="#fff"/>
        </g>
      </g>
      <g id="Group_7" data-name="Group 7">
        <path id="Path_4" data-name="Path 4" d="M110.474,60.921a5.33,5.33,0,1,1-5.33,5.33,5.329,5.329,0,0,1,5.33-5.33" fill="#fff" fill-rule="evenodd"/>
        <g id="Group_6" data-name="Group 6" clip-path="url(#clip-path-2)">
          <rect id="Rectangle_20" data-name="Rectangle 20" width="10.659" height="10.659" transform="translate(105.144 60.921)" fill="#fff"/>
        </g>
      </g>
      <g id="Group_9" data-name="Group 9">
        <path id="Path_6" data-name="Path 6" d="M121.673,73.265a3.881,3.881,0,1,1-3.881,3.881,3.881,3.881,0,0,1,3.881-3.881" fill="#fff" fill-rule="evenodd"/>
        <g id="Group_8" data-name="Group 8" clip-path="url(#clip-path-3)">
          <rect id="Rectangle_21" data-name="Rectangle 21" width="7.762" height="7.762" transform="translate(117.792 73.265)" fill="#fff"/>
        </g>
      </g>
      <g id="Group_11" data-name="Group 11">
        <path id="Path_8" data-name="Path 8" d="M131.386,61.616a4.576,4.576,0,1,1-4.576,4.576,4.577,4.577,0,0,1,4.576-4.576" fill="#fff" fill-rule="evenodd"/>
        <g id="Group_10" data-name="Group 10" clip-path="url(#clip-path-4)">
          <rect id="Rectangle_22" data-name="Rectangle 22" width="9.153" height="9.153" transform="translate(126.81 61.616)" fill="#fff"/>
        </g>
      </g>
      <g id="Group_13" data-name="Group 13">
        <path id="Path_10" data-name="Path 10" d="M139.024,50.493a3.872,3.872,0,1,1-3.872,3.873,3.873,3.873,0,0,1,3.872-3.873" fill="#fff" fill-rule="evenodd"/>
        <g id="Group_12" data-name="Group 12" clip-path="url(#clip-path-5)">
          <rect id="Rectangle_23" data-name="Rectangle 23" width="7.744" height="7.744" transform="translate(135.152 50.493)" fill="#fff"/>
        </g>
      </g>
      <g id="Group_15" data-name="Group 15">
        <path id="Path_12" data-name="Path 12" d="M134.738,80a3.882,3.882,0,1,1-3.881,3.882A3.881,3.881,0,0,1,134.738,80" fill="#fff" fill-rule="evenodd"/>
        <g id="Group_14" data-name="Group 14" clip-path="url(#clip-path-6)">
          <rect id="Rectangle_24" data-name="Rectangle 24" width="7.762" height="7.762" transform="translate(130.857 80.002)" fill="#fff"/>
        </g>
      </g>
      <g id="Group_17" data-name="Group 17">
        <path id="Path_14" data-name="Path 14" d="M149.287,78.126A4.576,4.576,0,1,1,144.71,82.7a4.576,4.576,0,0,1,4.577-4.576" fill="#fff" fill-rule="evenodd"/>
        <g id="Group_16" data-name="Group 16" clip-path="url(#clip-path-7)">
          <rect id="Rectangle_25" data-name="Rectangle 25" width="9.153" height="9.153" transform="translate(144.71 78.126)" fill="#fff"/>
        </g>
      </g>
      <g id="Group_19" data-name="Group 19">
        <path id="Path_16" data-name="Path 16" d="M153.863,61.74a3.881,3.881,0,1,1-3.881,3.881,3.88,3.88,0,0,1,3.881-3.881" fill="#fff" fill-rule="evenodd"/>
        <g id="Group_18" data-name="Group 18" clip-path="url(#clip-path-8)">
          <rect id="Rectangle_26" data-name="Rectangle 26" width="7.762" height="7.762" transform="translate(149.982 61.74)" fill="#fff"/>
        </g>
      </g>
      <g id="Group_21" data-name="Group 21">
        <path id="Path_18" data-name="Path 18" d="M143.146,66.945a3.013,3.013,0,1,1-3.012,3.013,3.013,3.013,0,0,1,3.012-3.013" fill="#fff" fill-rule="evenodd"/>
        <g id="Group_20" data-name="Group 20" clip-path="url(#clip-path-9)">
          <rect id="Rectangle_27" data-name="Rectangle 27" width="6.025" height="6.025" transform="translate(140.134 66.945)" fill="#fff"/>
        </g>
      </g>
      <g id="Group_23" data-name="Group 23">
        <path id="Path_20" data-name="Path 20" d="M110.519,64.854l9.728-8.955,10.936,9,8.179-12.666,4.475,16.925,8.663-2.9.682-1.39,2.695.761-2.513,1.63-10.909,3.51L138.685,56.5l-7.1,10.988-11.275-9.275L111.7,66.14Z" fill="#fff"/>
        <g id="Group_22" data-name="Group 22" clip-path="url(#clip-path-10)">
          <rect id="Rectangle_28" data-name="Rectangle 28" width="45.358" height="20.022" transform="translate(110.519 52.23)" fill="#fff"/>
        </g>
      </g>
      <g id="Group_25" data-name="Group 25">
        <path id="Path_22" data-name="Path 22" d="M132.046,66.764l-8.3,9.629,12.121,5.955h13.94V84.1H135.674l-.383-.093-14.339-7.045,9.775-11.341Z" fill="#fff"/>
        <g id="Group_24" data-name="Group 24" clip-path="url(#clip-path-11)">
          <rect id="Rectangle_29" data-name="Rectangle 29" width="28.857" height="18.479" transform="translate(120.952 65.621)" fill="#fff"/>
        </g>
      </g>
      <g id="Group_27" data-name="Group 27">
        <path id="Path_24" data-name="Path 24" d="M129.929,54.472A1.632,1.632,0,1,1,128.3,56.1a1.631,1.631,0,0,1,1.631-1.631" fill="#fff" fill-rule="evenodd"/>
        <g id="Group_26" data-name="Group 26" clip-path="url(#clip-path-12)">
          <rect id="Rectangle_30" data-name="Rectangle 30" width="3.263" height="3.263" transform="translate(128.298 54.472)" fill="#fff"/>
        </g>
      </g>
      <g id="Group_29" data-name="Group 29">
        <path id="Path_26" data-name="Path 26" d="M121.481,65.778a1.632,1.632,0,1,1-1.632,1.631,1.631,1.631,0,0,1,1.632-1.631" fill="#fff" fill-rule="evenodd"/>
        <g id="Group_28" data-name="Group 28" clip-path="url(#clip-path-13)">
          <rect id="Rectangle_31" data-name="Rectangle 31" width="3.263" height="3.263" transform="translate(119.849 65.778)" fill="#fff"/>
        </g>
      </g>
      <g id="Group_31" data-name="Group 31">
        <path id="Path_28" data-name="Path 28" d="M146.433,62.358A1.632,1.632,0,1,1,144.8,63.99a1.632,1.632,0,0,1,1.631-1.632" fill="#fff" fill-rule="evenodd"/>
        <g id="Group_30" data-name="Group 30" clip-path="url(#clip-path-14)">
          <rect id="Rectangle_32" data-name="Rectangle 32" width="3.263" height="3.263" transform="translate(144.802 62.358)" fill="#fff"/>
        </g>
      </g>
      <g id="Group_33" data-name="Group 33">
        <path id="Path_30" data-name="Path 30" d="M136.948,73.8a1.632,1.632,0,1,1-1.631,1.632,1.632,1.632,0,0,1,1.631-1.632" fill="#fff" fill-rule="evenodd"/>
        <g id="Group_32" data-name="Group 32" clip-path="url(#clip-path-15)">
          <rect id="Rectangle_33" data-name="Rectangle 33" width="3.263" height="3.263" transform="translate(135.317 73.801)" fill="#fff"/>
        </g>
      </g>
      <g id="Group_35" data-name="Group 35">
        <path id="Path_32" data-name="Path 32" d="M137.991,63.229a.969.969,0,1,1-.97.969.969.969,0,0,1,.97-.969" fill="#fff" fill-rule="evenodd"/>
        <g id="Group_34" data-name="Group 34" clip-path="url(#clip-path-16)">
          <rect id="Rectangle_34" data-name="Rectangle 34" width="1.94" height="1.939" transform="translate(137.021 63.229)" fill="#fff"/>
        </g>
      </g>
      <g id="Group_37" data-name="Group 37">
        <path id="Path_34" data-name="Path 34" d="M145.464,56.012a.97.97,0,1,1-.97.97.97.97,0,0,1,.97-.97" fill="#fff" fill-rule="evenodd"/>
        <g id="Group_36" data-name="Group 36" clip-path="url(#clip-path-17)">
          <rect id="Rectangle_35" data-name="Rectangle 35" width="1.94" height="1.94" transform="translate(144.494 56.012)" fill="#fff"/>
        </g>
      </g>
      <g id="Group_39" data-name="Group 39">
        <path id="Path_36" data-name="Path 36" d="M149.747,72.97a1.43,1.43,0,1,1-1.43,1.43,1.43,1.43,0,0,1,1.43-1.43" fill="#fff" fill-rule="evenodd"/>
        <g id="Group_38" data-name="Group 38" clip-path="url(#clip-path-18)">
          <rect id="Rectangle_36" data-name="Rectangle 36" width="2.86" height="2.86" transform="translate(148.317 72.97)" fill="#fff"/>
        </g>
      </g>
      <g id="Group_41" data-name="Group 41">
        <path id="Path_38" data-name="Path 38" d="M113.4,73.858a1.374,1.374,0,1,1-1.373,1.374,1.374,1.374,0,0,1,1.373-1.374" fill="#fff" fill-rule="evenodd"/>
        <g id="Group_40" data-name="Group 40" clip-path="url(#clip-path-19)">
          <rect id="Rectangle_37" data-name="Rectangle 37" width="2.747" height="2.747" transform="translate(112.027 73.858)" fill="#fff"/>
        </g>
      </g>
      <g id="Group_43" data-name="Group 43">
        <path id="Path_40" data-name="Path 40" d="M141.93,91.276a3.939,3.939,0,1,1-3.939,3.94,3.939,3.939,0,0,1,3.939-3.94" fill="#fff" fill-rule="evenodd"/>
        <g id="Group_42" data-name="Group 42" clip-path="url(#clip-path-20)">
          <rect id="Rectangle_38" data-name="Rectangle 38" width="7.879" height="7.878" transform="translate(137.991 91.276)" fill="#fff"/>
        </g>
      </g>
      <g id="Group_45" data-name="Group 45">
        <rect id="Rectangle_39" data-name="Rectangle 39" width="14.348" height="1.744" transform="translate(141.201 94.737) rotate(-56.697)" fill="#fff"/>
        <g id="Group_44" data-name="Group 44" clip-path="url(#clip-path-21)">
          <rect id="Rectangle_40" data-name="Rectangle 40" width="9.335" height="12.95" transform="translate(141.201 82.745)" fill="#fff"/>
        </g>
      </g>
      <g id="Group_47" data-name="Group 47">
        <path id="Path_42" data-name="Path 42" d="M141.719,86.787a.945.945,0,1,1-.945.944.944.944,0,0,1,.945-.944" fill="#fff" fill-rule="evenodd"/>
        <g id="Group_46" data-name="Group 46" clip-path="url(#clip-path-22)">
          <rect id="Rectangle_42" data-name="Rectangle 42" width="1.889" height="1.889" transform="translate(140.774 86.787)" fill="#fff"/>
        </g>
      </g>
    </g>
  </g>
</svg>
