<svg xmlns="http://www.w3.org/2000/svg" width="43.889" height="42.093" viewBox="0 0 43.889 42.093">
  <g id="Group_143" data-name="Group 143" transform="translate(-480.265 -3930.097)">
    <path id="Path_164" data-name="Path 164" d="M480.265,3969.873a2.4,2.4,0,0,1,1.09-1.266q9.36-5.78,18.71-11.579a1.943,1.943,0,0,1,2.733.31q2.731,2.719,5.445,5.454c.277.281.436.279.714,0q3.344-3.378,6.72-6.722c.245-.244.28-.391.012-.645-.663-.627-1.3-1.283-1.942-1.932a1.87,1.87,0,0,1,1.345-3.266c2.369.01,4.738,0,7.108,0a1.825,1.825,0,0,1,1.95,1.952c0,2.369-.006,4.738,0,7.107a1.871,1.871,0,0,1-3.268,1.342c-.619-.612-1.231-1.23-1.847-1.846-.4-.4-.4-.4-.815.017l-8.054,8.052a1.948,1.948,0,0,1-3.173,0q-2.771-2.77-5.541-5.54c-.456-.456-.457-.456-.987-.128-5.678,3.515-11.367,7.012-17.024,10.56a2.015,2.015,0,0,1-3.18-.844Z" fill="#fff"/>
    <path id="Path_165" data-name="Path 165" d="M513.2,3945.689a15.564,15.564,0,0,1-5.995,12.252c-.309.252-.5.249-.777-.044-.717-.756-1.463-1.485-2.206-2.215a4.085,4.085,0,0,0-5.251-.548c-2.366,1.49-4.742,2.967-7.1,4.472a.974.974,0,0,1-1.1.062,15.146,15.146,0,0,1-8.455-11.182,15.571,15.571,0,0,1,30.583-5.867A13.652,13.652,0,0,1,513.2,3945.689Zm-16.9,3.716v.007c-.614,0-1.227-.008-1.841,0a1.24,1.24,0,0,0-1.329,1.3,1.289,1.289,0,0,0,1.332,1.318c.427.01.857.026,1.283,0s.611.1.57.55a6.218,6.218,0,0,0,0,.984,1.306,1.306,0,0,0,2.607-.022,7.88,7.88,0,0,0,0-.984c-.032-.405.1-.593.52-.717a3.716,3.716,0,0,0,2.7-3.7,3.781,3.781,0,0,0-3.055-3.689,11.013,11.013,0,0,0-1.962-.078c-.832-.019-1.379-.492-1.371-1.206s.528-1.158,1.353-1.16c1.155,0,2.311,0,3.467,0a1.357,1.357,0,1,0,.019-2.679c-.4,0-.8-.019-1.2,0-.363.022-.483-.135-.467-.477s.01-.656,0-.984a1.306,1.306,0,0,0-2.612,0,8.787,8.787,0,0,0,0,1.026c.026.359-.105.519-.462.627a3.812,3.812,0,0,0,1.08,7.473c.386.006.771,0,1.156,0a1.659,1.659,0,0,1,.748.152,1.179,1.179,0,0,1,.628,1.328,1.211,1.211,0,0,1-1.195.924C497.609,3949.426,496.952,3949.405,496.3,3949.405Z" fill="#fff"/>
  </g>
</svg>
