<svg xmlns="http://www.w3.org/2000/svg" width="33.621" height="39.788" viewBox="0 0 33.621 39.788">
  <path id="Path_163" data-name="Path 163" d="M502.209,3855.142c-4.057,0-8.114.023-12.17-.009a4.514,4.514,0,0,1-4.289-2.772,3.574,3.574,0,0,1-.342-1.54c0-5.273-.026-10.547.013-15.82a4.209,4.209,0,0,1,2.508-3.825,4.563,4.563,0,0,1,2.2-.51c.662.008,1.325-.007,1.987.006.227,0,.3-.064.3-.294-.008-2.045-.028-4.09,0-6.134a8.647,8.647,0,0,1,4.734-7.886,7.892,7.892,0,0,1,3.807-.991c.769-.007,1.539,0,2.309,0a8.473,8.473,0,0,1,5.589,2.058,8.637,8.637,0,0,1,3.116,5.932c.028.281.039.561.039.842q0,3.067,0,6.134c0,.336,0,.336.346.337.7,0,1.391,0,2.086,0a4.683,4.683,0,0,1,4.31,2.978,4.137,4.137,0,0,1,.266,1.507c0,5.165.01,10.331-.007,15.5a4.322,4.322,0,0,1-2.685,4.067,4.513,4.513,0,0,1-2.023.428Q508.257,3855.135,502.209,3855.142Zm-.019-24.474h6.181c.33,0,.331,0,.331-.324,0-1.647,0-3.294,0-4.94,0-.562.014-1.124-.032-1.687a5.467,5.467,0,0,0-4.038-4.846,11.523,11.523,0,0,0-4.047-.138,5.445,5.445,0,0,0-4.864,5.437c0,2.06,0,4.121-.006,6.181,0,.25.066.324.319.322C498.085,3830.663,500.138,3830.668,502.19,3830.668Zm.024,20.725c.72,0,1.441-.007,2.161,0,.211,0,.293-.039.267-.274-.1-.871-.173-1.744-.259-2.616-.1-1.062-.2-2.124-.322-3.184a.6.6,0,0,1,.213-.6,3.13,3.13,0,0,0,1.1-3.095,3.184,3.184,0,0,0-2.676-2.559,3.221,3.221,0,0,0-2.555,5.654.508.508,0,0,1,.241.473c-.209,1.981-.4,3.965-.61,5.946-.023.216.044.256.233.255C500.741,3851.39,501.477,3851.393,502.214,3851.393Z" transform="translate(-485.399 -3815.362)" fill="#fff"/>
</svg>
