<svg xmlns="http://www.w3.org/2000/svg" width="47.034" height="47.031" viewBox="0 0 47.034 47.031">
  <g id="Group_144" data-name="Group 144" transform="translate(-478.693 -4043.515)">
    <path id="Path_166" data-name="Path 166" d="M503.2,4081.905c0,.6.021,1.209-.009,1.811a.677.677,0,0,0,.447.728,3.091,3.091,0,0,1,1.8,2.969,3.165,3.165,0,0,1-2.177,2.959,3.216,3.216,0,0,1-2.5-5.912.751.751,0,0,0,.475-.807c-.024-1.208-.015-2.416-.005-3.624,0-.3-.053-.46-.4-.5a12.509,12.509,0,0,1-6.5-2.727c-.248-.2-.383-.084-.555.09-.861.87-1.718,1.744-2.6,2.592a.8.8,0,0,0-.245.95,3.189,3.189,0,0,1-2.892,4.169,3.084,3.084,0,0,1-3.053-1.81,3.2,3.2,0,0,1,3.818-4.469.835.835,0,0,0,.988-.269q1.242-1.285,2.529-2.528c.256-.247.29-.411.056-.7a12.254,12.254,0,0,1-2.6-6.1c-.1-.7-.1-.7-.818-.7-1.129,0-2.258.014-3.386-.007a.724.724,0,0,0-.77.457,3.209,3.209,0,0,1-5.9-.361,3.213,3.213,0,0,1,5.88-2.558.784.784,0,0,0,.836.507c1.207-.028,2.416-.014,3.624-.007.266,0,.443-.03.484-.364a12.555,12.555,0,0,1,2.738-6.551.3.3,0,0,0-.034-.485c-.951-.938-1.9-1.877-2.831-2.834-.251-.259-.475-.151-.734-.071a3.228,3.228,0,1,1,2.074-2.116.8.8,0,0,0,.238.952c.884.846,1.742,1.72,2.6,2.593.2.2.338.275.593.069a12.117,12.117,0,0,1,6.278-2.662c.5-.06.612-.265.6-.727-.03-1.176-.022-2.353,0-3.529a.652.652,0,0,0-.426-.691,3.243,3.243,0,0,1-1.827-3.006,3.169,3.169,0,0,1,2.166-2.921,3.212,3.212,0,0,1,2.539,5.887.784.784,0,0,0-.5.843c.025,1.16.021,2.321,0,3.481-.007.391.062.592.519.647a12.254,12.254,0,0,1,6.369,2.686c.228.185.368.14.558-.054.868-.885,1.739-1.768,2.632-2.628a.758.758,0,0,0,.237-.91,3.156,3.156,0,0,1,1.135-3.566,3.223,3.223,0,0,1,4.835,3.957,3.165,3.165,0,0,1-3.87,1.694.8.8,0,0,0-.95.25c-.847.882-1.719,1.742-2.594,2.6-.208.2-.251.349-.053.594a12.415,12.415,0,0,1,2.679,6.375c.048.383.191.5.57.494,1.192-.022,2.385-.025,3.576,0a.758.758,0,0,0,.806-.478,3.21,3.21,0,0,1,5.9.4,3.214,3.214,0,0,1-5.9,2.523.751.751,0,0,0-.8-.489c-1.143.028-2.288.009-3.433.009-.664,0-.672,0-.755.663a12.433,12.433,0,0,1-2.258,5.7c-.589.828-.588.829.133,1.55s1.472,1.452,2.186,2.2a.694.694,0,0,0,.832.206,3.19,3.19,0,0,1,4.145,2.294,3.218,3.218,0,1,1-6.192-.217.765.765,0,0,0-.226-.912c-.894-.858-1.764-1.743-2.633-2.627-.184-.187-.323-.257-.557-.067a12.417,12.417,0,0,1-6.414,2.7c-.4.05-.5.214-.481.581C503.215,4080.7,503.2,4081.3,503.2,4081.905Zm-1.352-7.54a11.021,11.021,0,0,0,4.63-.75,1.906,1.906,0,0,0,1.277-2.257,5.587,5.587,0,0,0-11.006-.409c-.338,1.541.006,2.2,1.469,2.785a6.246,6.246,0,0,0,.723.238A10.988,10.988,0,0,0,501.845,4074.365Zm.368-14.657a2.524,2.524,0,0,0-2.55,2.532,2.547,2.547,0,1,0,5.094.005A2.525,2.525,0,0,0,502.213,4059.708Z" fill="#fff"/>
  </g>
</svg>
